Coordinates
version=1
nRows=29
nColumns=22
inDegrees=yes

Units are S.I. units (second, meters, Newtons, ...)
If the header above contains a line with 'inDegrees', this indicates whether rotational values are in degrees (yes) or radians (no).

endheader
time	pelvis_tilt	pelvis_list	pelvis_rotation	pelvis_tx	pelvis_ty	pelvis_tz	hip_flexion_r	hip_adduction_r	hip_rotation_r	knee_angle_r	ankle_angle_r	subtalar_angle_r	hip_flexion_l	hip_adduction_l	hip_rotation_l	knee_angle_l	ankle_angle_l	subtalar_angle_l	lumbar_extension	lumbar_bending	lumbar_rotation
      0.01000000	    -15.77579799	     -1.75655633	     -2.78128249	     -0.74023554	      0.97705762	      0.22368926	     20.49852503	      2.28466637	     -6.40746152	    -14.59778038	     15.41102563	     -4.61252116	     21.59600034	     -2.76564846	     -7.53236610	    -15.95245695	     17.15109187	     -2.03060820	      9.58788481	      3.62384931	      4.02826970
      0.02000000	    -15.76063730	     -1.76920129	     -2.74864635	     -0.74054637	      0.97709137	      0.22361535	     20.50284814	      2.28694095	     -6.41515801	    -14.60449712	     15.39231008	     -4.61131675	     21.61619156	     -2.76884645	     -7.51301898	    -15.97518362	     17.13552916	     -2.03463337	      9.56210055	      3.61711875	      4.04117307
      0.03000000	    -15.74386705	     -1.78006589	     -2.68884644	     -0.74089914	      0.97713108	      0.22345900	     20.51235715	      2.27127773	     -6.48531450	    -14.62027285	     15.37190086	     -4.61359374	     21.63383350	     -2.75450317	     -7.45153550	    -15.98141220	     17.10251662	     -2.04486317	      9.53502635	      3.60869761	      4.01486757
      0.04000000	    -15.72704843	     -1.78439805	     -2.65040481	     -0.74125976	      0.97716603	      0.22334460	     20.51937692	      2.26034966	     -6.49997060	    -14.62822916	     15.36607404	     -4.61396700	     21.65318243	     -2.74473523	     -7.42271209	    -15.99868130	     17.08762405	     -2.04747689	      9.51479607	      3.58772384	      4.03722191
      0.05000000	    -15.71419733	     -1.77681106	     -2.58926836	     -0.74163370	      0.97719618	      0.22315257	     20.54382008	      2.22182625	     -6.56953622	    -14.66078012	     15.36531984	     -4.61756695	     21.66993100	     -2.70841823	     -7.36667662	    -15.99253211	     17.04462883	     -2.05551428	      9.50292783	      3.55653483	      4.01481010
      0.06000000	    -15.70615922	     -1.76945195	     -2.54360467	     -0.74201742	      0.97721407	      0.22298903	     20.57156730	      2.19193977	     -6.60326297	    -14.68756081	     15.36707166	     -4.61882569	     21.69646852	     -2.68061197	     -7.33172840	    -16.00002847	     17.01614273	     -2.06369604	      9.49853447	      3.52515568	      4.01709439
      0.07000000	    -15.69410337	     -1.76547830	     -2.51193415	     -0.74240383	      0.97723755	      0.22284889	     20.58982971	      2.17210750	     -6.61564659	    -14.70165651	     15.36286020	     -4.61822563	     21.72057613	     -2.66301762	     -7.31632219	    -16.01536880	     17.00009498	     -2.06617074	      9.48785738	      3.49937953	      4.03749395
      0.08000000	    -15.68427366	     -1.74922658	     -2.47794674	     -0.74279872	      0.97725654	      0.22269759	     20.62570464	      2.13544545	     -6.63831553	    -14.74484470	     15.35924369	     -4.61787843	     21.74612650	     -2.63100552	     -7.30180718	    -16.02670117	     16.97256054	     -2.06852570	      9.48047028	      3.46001573	      4.04164064
      0.09000000	    -15.69806494	     -1.71929065	     -2.44857856	     -0.74317529	      0.97723594	      0.22254222	     20.69129894	      2.08468874	     -6.66989275	    -14.79725376	     15.38789604	     -4.61782968	     21.78411541	     -2.58441111	     -7.29054381	    -16.01544073	     16.93660857	     -2.07330527	      9.50714505	      3.40757771	      4.04063072
      0.10000000	    -15.68139030	     -1.71707312	     -2.43002917	     -0.74355122	      0.97726540	      0.22241780	     20.71017926	      2.07038947	     -6.66505831	    -14.82286494	     15.37932175	     -4.61561386	     21.80563034	     -2.57311531	     -7.28116241	    -16.04131859	     16.92799007	     -2.07462333	      9.49019526	      3.38789807	      4.05762243
      0.11000000	    -15.66265101	     -1.70823464	     -2.41339217	     -0.74392605	      0.97729608	      0.22229294	     20.73716985	      2.04754869	     -6.67071936	    -14.86776457	     15.37400369	     -4.61360173	     21.82506748	     -2.55484411	     -7.27585408	    -16.06751477	     16.91547088	     -2.07604886	      9.46875158	      3.36163703	      4.06982884
      0.12000000	    -15.65639066	     -1.67747345	     -2.39889092	     -0.74429581	      0.97729808	      0.22214139	     20.79335115	      1.99617769	     -6.70558496	    -14.94099823	     15.40411993	     -4.60930787	     21.85191041	     -2.51195853	     -7.27918893	    -16.08156417	     16.89238077	     -2.08057968	      9.46159741	      3.31430881	      4.07752151
      0.13000000	    -15.63351415	     -1.67548181	     -2.38681333	     -0.74466551	      0.97732752	      0.22202059	     20.81396506	      1.98357152	     -6.69390782	    -14.98267884	     15.39828104	     -4.60663614	     21.87368973	     -2.50087208	     -7.25883889	    -16.12312306	     16.88283293	     -2.08212737	      9.43107373	      3.29817480	      4.09059614
      0.14000000	    -15.60765300	     -1.66898767	     -2.37556274	     -0.74505196	      0.97734878	      0.22188710	     20.84486605	      1.96300409	     -6.69320451	    -15.04782963	     15.39848135	     -4.60477248	     21.89989690	     -2.48494557	     -7.24038333	    -16.17714392	     16.87422840	     -2.08542848	      9.39195767	      3.27857782	      4.09824730
      0.15000000	    -15.60426773	     -1.64492693	     -2.35437184	     -0.74546606	      0.97731163	      0.22171763	     20.92562029	      1.91374705	     -6.74148868	    -15.15975282	     15.45057834	     -4.60231966	     21.95982329	     -2.44710781	     -7.22705297	    -16.24277815	     16.87162358	     -2.10080185	      9.37799693	      3.23888722	      4.09193843
      0.16000000	    -15.61966758	     -1.63636793	     -2.33285607	     -0.74592153	      0.97723872	      0.22156267	     21.02527530	      1.88639828	     -6.75078383	    -15.26771405	     15.47770161	     -4.59572703	     22.05681149	     -2.42532854	     -7.17822571	    -16.33765860	     16.86804442	     -2.12421531	      9.38301343	      3.21478419	      4.08097345
      0.17000000	    -15.58992791	     -1.63785302	     -2.32187495	     -0.74633257	      0.97725430	      0.22142213	     21.05092706	      1.87742688	     -6.71448616	    -15.32765620	     15.46456167	     -4.59431555	     22.09685850	     -2.41455380	     -7.12791149	    -16.42241866	     16.85895755	     -2.12771735	      9.33377858	      3.20159658	      4.09559189
      0.18000000	    -15.60940808	     -1.64329159	     -2.29525269	     -0.74680397	      0.97715017	      0.22125009	     21.16825486	      1.85848303	     -6.76076973	    -15.46122636	     15.51343649	     -4.60182652	     22.22440104	     -2.40692642	     -7.06973596	    -16.56474854	     16.88885622	     -2.16373421	      9.34180312	      3.19257130	      4.06274804
      0.19000000	    -15.58084286	     -1.64618438	     -2.28642238	     -0.74719780	      0.97716422	      0.22110463	     21.19673193	      1.85200038	     -6.71497736	    -15.52677021	     15.49515658	     -4.60059051	     22.27290505	     -2.39618348	     -7.00383718	    -16.66550119	     16.87707021	     -2.17018089	      9.29689630	      3.18053163	      4.07340608
      0.20000000	    -15.60538200	     -1.66868488	     -2.25679548	     -0.74761827	      0.97705992	      0.22091072	     21.30437672	      1.85028263	     -6.75326287	    -15.64056219	     15.52914103	     -4.60933758	     22.41004578	     -2.40392727	     -6.93620010	    -16.81921970	     16.91562272	     -2.21954785	      9.31714816	      3.19472112	      4.03064308
      0.21000000	    -15.57555643	     -1.66918527	     -2.25531456	     -0.74793356	      0.97708487	      0.22075488	     21.31978860	      1.84160329	     -6.71009342	    -15.69213455	     15.51032262	     -4.60765250	     22.45085290	     -2.39201983	     -6.87830556	    -16.91727247	     16.90535671	     -2.22662877	      9.27842845	      3.18407737	      4.04296360
      0.22000000	    -15.56841239	     -1.68724177	     -2.24333709	     -0.74824716	      0.97704886	      0.22057583	     21.37160678	      1.84246026	     -6.71662900	    -15.77339190	     15.52902242	     -4.60980157	     22.53567263	     -2.40086644	     -6.84250623	    -17.05053339	     16.93954944	     -2.27003684	      9.26667959	      3.19650668	      4.01657541
      0.23000000	    -15.53895253	     -1.68533986	     -2.24676675	     -0.74849806	      0.97707685	      0.22040211	     21.37778389	      1.82978583	     -6.68432270	    -15.81338520	     15.51698495	     -4.60756622	     22.56980771	     -2.38844230	     -6.80053687	    -17.14286691	     16.93586260	     -2.27881849	      9.23106592	      3.18829848	      4.02642790
      0.24000000	    -15.50768060	     -1.68568276	     -2.25010093	     -0.74872924	      0.97710133	      0.22021686	     21.38428625	      1.81749299	     -6.66249607	    -15.86111241	     15.51538986	     -4.60558864	     22.60320931	     -2.37977793	     -6.77726254	    -17.23918221	     16.94375103	     -2.29216942	      9.19269988	      3.18365088	      4.02579323
      0.25000000	    -15.48026757	     -1.69352042	     -2.25263555	     -0.74894069	      0.97710588	      0.22002034	     21.39824621	      1.80930110	     -6.66832272	    -15.91878198	     15.53958147	     -4.59894850	     22.64430892	     -2.38218574	     -6.78132215	    -17.34475305	     16.98106613	     -2.33161730	      9.15905908	      3.18898191	      4.01780490
      0.26000000	    -15.45390342	     -1.69149488	     -2.26086539	     -0.74913855	      0.97712713	      0.21981416	     21.40063731	      1.79457766	     -6.65031032	    -15.94950429	     15.53509660	     -4.59460150	     22.67120682	     -2.37013470	     -6.75728215	    -17.42398842	     16.98434343	     -2.34386079	      9.12295546	      3.18415876	      4.03107777
      0.27000000	    -15.42598430	     -1.69125382	     -2.27145220	     -0.74933187	      0.97714345	      0.21960285	     21.40637421	      1.78089523	     -6.63844125	    -15.99055896	     15.53689373	     -4.59006079	     22.69599448	     -2.36147149	     -6.74424720	    -17.50407208	     16.99531850	     -2.35935489	      9.08087096	      3.18326908	      4.04212217
      0.28000000	    -15.39820564	     -1.69292344	     -2.28456836	     -0.74950601	      0.97715574	      0.21938776	     21.41328011	      1.76911536	     -6.63018713	    -16.03593351	     15.54338578	     -4.58464802	     22.71748169	     -2.35541237	     -6.73580202	    -17.58073277	     17.01149450	     -2.37824644	      9.03836169	      3.18600390	      4.05919565
      0.29000000	    -15.37160106	     -1.69524900	     -2.30187764	     -0.74967164	      0.97716572	      0.21916920	     21.42271464	      1.75909848	     -6.61967170	    -16.08400424	     15.55087995	     -4.57822566	     22.73529498	     -2.35037196	     -6.72869760	    -17.65091661	     17.02968258	     -2.39958261	      8.99363160	      3.19221072	      4.08168175
